<svg width="26" height="26" viewBox="0 0 26 26" fill="none" xmlns="http://www.w3.org/2000/svg">
<path d="M22.6919 8.99814C22.681 8.17764 22.5274 7.36531 22.238 6.59747C21.9871 5.9498 21.6038 5.3616 21.1126 4.87045C20.6215 4.3793 20.0333 3.99601 19.3856 3.74505C18.6276 3.46052 17.8269 3.30667 17.0174 3.29005C15.9753 3.24347 15.6448 3.23047 12.9993 3.23047C10.3538 3.23047 10.0148 3.23047 8.98018 3.29005C8.1711 3.30679 7.37072 3.46064 6.61309 3.74505C5.96532 3.99583 5.37703 4.37907 4.88586 4.87024C4.39469 5.36141 4.01146 5.9497 3.76068 6.59747C3.47558 7.35486 3.32206 8.15542 3.30676 8.96455C3.26018 10.0078 3.24609 10.3382 3.24609 12.9837C3.24609 15.6292 3.24609 15.9672 3.30676 17.0029C3.32301 17.8132 3.47576 18.6127 3.76068 19.3721C4.01188 20.0197 4.3954 20.6078 4.88673 21.0987C5.37807 21.5897 5.96641 21.9728 6.61418 22.2235C7.36973 22.5194 8.17025 22.6843 8.98126 22.711C10.0245 22.7576 10.3549 22.7716 13.0004 22.7716C15.6459 22.7716 15.985 22.7716 17.0196 22.711C17.829 22.695 18.6298 22.5415 19.3878 22.2571C20.0353 22.0058 20.6233 21.6224 21.1144 21.1313C21.6055 20.6402 21.9889 20.0521 22.2402 19.4046C22.5251 18.6463 22.6778 17.8468 22.6941 17.0354C22.7407 15.9932 22.7548 15.6628 22.7548 13.0162C22.7526 10.3707 22.7526 10.0349 22.6919 8.99814ZM12.9928 17.9866C10.226 17.9866 7.98459 15.7451 7.98459 12.9783C7.98459 10.2115 10.226 7.97005 12.9928 7.97005C14.3211 7.97005 15.595 8.49771 16.5342 9.43694C17.4734 10.3762 18.0011 11.65 18.0011 12.9783C18.0011 14.3066 17.4734 15.5804 16.5342 16.5197C15.595 17.4589 14.3211 17.9866 12.9928 17.9866ZM18.2004 8.95264C18.047 8.95278 17.8951 8.92267 17.7533 8.86403C17.6116 8.80539 17.4828 8.71937 17.3743 8.6109C17.2659 8.50243 17.1798 8.37363 17.1212 8.23188C17.0626 8.09013 17.0324 7.9382 17.0326 7.7848C17.0326 7.63151 17.0628 7.47972 17.1214 7.3381C17.1801 7.19648 17.2661 7.0678 17.3745 6.9594C17.4829 6.85101 17.6116 6.76503 17.7532 6.70637C17.8948 6.6477 18.0466 6.61751 18.1999 6.61751C18.3532 6.61751 18.505 6.6477 18.6466 6.70637C18.7882 6.76503 18.9169 6.85101 19.0253 6.9594C19.1337 7.0678 19.2197 7.19648 19.2783 7.3381C19.337 7.47972 19.3672 7.63151 19.3672 7.7848C19.3672 8.43047 18.845 8.95264 18.2004 8.95264Z" fill="white"/>
<path d="M12.9935 16.2292C14.7902 16.2292 16.2467 14.7726 16.2467 12.9759C16.2467 11.1792 14.7902 9.72266 12.9935 9.72266C11.1968 9.72266 9.74023 11.1792 9.74023 12.9759C9.74023 14.7726 11.1968 16.2292 12.9935 16.2292Z" fill="white"/>
</svg>
