<svg width="30" height="21" viewBox="0 0 30 21" fill="none" xmlns="http://www.w3.org/2000/svg">
<path d="M23.548 20.0918L20.9316 15.4057L24.1571 10.1441L21.2044 4.56502L23.7029 0.00879288L29.472 10.1441L23.548 20.0918Z" fill="#FAC800"/>
<path d="M10.466 20.0918L7.84961 15.4057L11.0751 10.1441L8.12236 4.56502L10.6208 0.00879288L16.39 10.1441L10.466 20.0918Z" fill="white"/>
<path d="M5.76912 19.9082L8.26758 15.4429L5.31485 10.1403L8.26758 4.55859L5.76912 0.00022316L-5.24521e-05 10.1403L5.76912 19.9082Z" fill="white"/>
<path d="M14.7566 14.7354L21.1924 14.7769L23.5473 20.0554L11.7734 20.0972L14.7566 14.7354Z" fill="#FAC800"/>
<path d="M21.5852 4.70801L17.6606 4.70768L13.736 4.70801L12.0599 0.057745H23.752L21.5852 4.70801Z" fill="#FAC800"/>
</svg>
