<svg width="38" height="38" viewBox="0 0 38 38" fill="none" xmlns="http://www.w3.org/2000/svg">
<circle cx="19" cy="19" r="18.5" stroke="#F4F7F7"/>
<path d="M28.6919 14.9981C28.681 14.1776 28.5274 13.3653 28.238 12.5975C27.9871 11.9498 27.6038 11.3616 27.1126 10.8705C26.6215 10.3793 26.0333 9.99601 25.3856 9.74505C24.6276 9.46052 23.8269 9.30667 23.0174 9.29005C21.9753 9.24347 21.6448 9.23047 18.9993 9.23047C16.3538 9.23047 16.0148 9.23047 14.9802 9.29005C14.1711 9.30679 13.3707 9.46064 12.6131 9.74505C11.9653 9.99583 11.377 10.3791 10.8859 10.8702C10.3947 11.3614 10.0115 11.9497 9.76068 12.5975C9.47558 13.3549 9.32206 14.1554 9.30676 14.9646C9.26018 16.0078 9.24609 16.3382 9.24609 18.9837C9.24609 21.6292 9.24609 21.9672 9.30676 23.0029C9.32301 23.8132 9.47576 24.6127 9.76068 25.3721C10.0119 26.0197 10.3954 26.6078 10.8867 27.0987C11.3781 27.5897 11.9664 27.9728 12.6142 28.2235C13.3697 28.5194 14.1702 28.6843 14.9813 28.711C16.0245 28.7576 16.3549 28.7716 19.0004 28.7716C21.6459 28.7716 21.985 28.7716 23.0196 28.711C23.829 28.695 24.6298 28.5415 25.3878 28.2571C26.0353 28.0058 26.6233 27.6224 27.1144 27.1313C27.6055 26.6402 27.9889 26.0521 28.2402 25.4046C28.5251 24.6463 28.6778 23.8468 28.6941 23.0354C28.7407 21.9932 28.7548 21.6628 28.7548 19.0162C28.7526 16.3707 28.7526 16.0349 28.6919 14.9981ZM18.9928 23.9866C16.226 23.9866 13.9846 21.7451 13.9846 18.9783C13.9846 16.2115 16.226 13.9701 18.9928 13.9701C20.3211 13.9701 21.595 14.4977 22.5342 15.4369C23.4734 16.3762 24.0011 17.65 24.0011 18.9783C24.0011 20.3066 23.4734 21.5804 22.5342 22.5197C21.595 23.4589 20.3211 23.9866 18.9928 23.9866ZM24.2004 14.9526C24.047 14.9528 23.8951 14.9227 23.7533 14.864C23.6116 14.8054 23.4828 14.7194 23.3743 14.6109C23.2659 14.5024 23.1798 14.3736 23.1212 14.2319C23.0626 14.0901 23.0324 13.9382 23.0326 13.7848C23.0326 13.6315 23.0628 13.4797 23.1214 13.3381C23.1801 13.1965 23.2661 13.0678 23.3745 12.9594C23.4829 12.851 23.6116 12.765 23.7532 12.7064C23.8948 12.6477 24.0466 12.6175 24.1999 12.6175C24.3532 12.6175 24.505 12.6477 24.6466 12.7064C24.7882 12.765 24.9169 12.851 25.0253 12.9594C25.1337 13.0678 25.2197 13.1965 25.2783 13.3381C25.337 13.4797 25.3672 13.6315 25.3672 13.7848C25.3672 14.4305 24.845 14.9526 24.2004 14.9526Z" fill="white"/>
<path d="M18.9935 22.2292C20.7902 22.2292 22.2467 20.7726 22.2467 18.9759C22.2467 17.1792 20.7902 15.7227 18.9935 15.7227C17.1968 15.7227 15.7402 17.1792 15.7402 18.9759C15.7402 20.7726 17.1968 22.2292 18.9935 22.2292Z" fill="white"/>
</svg>
