<svg width="36" height="48" viewBox="0 0 36 48" fill="none" xmlns="http://www.w3.org/2000/svg">
<path d="M18.1875 0C15.75 0 13.4141 0.492188 11.1797 1.47656C8.94531 2.46094 7.01562 3.77344 5.39062 5.41406C3.76562 7.05469 2.46094 9 1.47656 11.25C0.492188 13.5 0 15.8438 0 18.2812C0 19.6562 0.1875 21.0938 0.5625 22.5938C0.9375 24.0938 1.375 25.4844 1.875 26.7656C2.375 28.0469 3.09375 29.4688 4.03125 31.0312C4.96875 32.5938 5.80469 33.9141 6.53906 34.9922C7.27344 36.0703 8.26562 37.3828 9.51562 38.9297C10.7656 40.4766 11.7344 41.6562 12.4219 42.4688C13.1094 43.2812 14.0781 44.4062 15.3281 45.8438C15.7031 46.2812 15.9844 46.5938 16.1719 46.7812C16.2344 46.875 16.3438 46.9922 16.5 47.1328C16.6562 47.2734 16.9375 47.4531 17.3438 47.6719C17.75 47.8906 18.1406 48 18.5156 48H18.6562C19.5312 48 20.3125 47.5938 21 46.7812C31 35.2812 36 25.7812 36 18.2812C36 13.0625 34.4062 8.73438 31.2188 5.29688C27.9062 1.76562 23.5625 0 18.1875 0ZM18.75 44.7656C18.7188 44.8281 18.6562 44.8906 18.5625 44.9531L18.375 44.7656L17.5781 43.875C16.3906 42.5 15.4688 41.4297 14.8125 40.6641C14.1562 39.8984 13.2344 38.7812 12.0469 37.3125C10.8594 35.8438 9.92188 34.6016 9.23438 33.5859C8.54688 32.5703 7.75 31.3359 6.84375 29.8828C5.9375 28.4297 5.24219 27.1172 4.75781 25.9453C4.27344 24.7734 3.85938 23.5078 3.51562 22.1484C3.17188 20.7891 3 19.5 3 18.2812C3 15.5625 3.6875 13.0234 5.0625 10.6641C6.4375 8.30469 8.28906 6.4375 10.6172 5.0625C12.9453 3.6875 15.4688 3 18.1875 3C20.6562 3 22.8594 3.42969 24.7969 4.28906C26.7344 5.14844 28.2891 6.3125 29.4609 7.78125C30.6328 9.25 31.5156 10.875 32.1094 12.6562C32.7031 14.4375 33 16.3125 33 18.2812C33 25.0312 28.25 33.8594 18.75 44.7656ZM18.0469 9.04688C17.0781 9.04688 16.1328 9.20312 15.2109 9.51562C14.2891 9.82812 13.4609 10.2578 12.7266 10.8047C11.9922 11.3516 11.3438 12 10.7812 12.75C10.2188 13.5 9.78906 14.3281 9.49219 15.2344C9.19531 16.1406 9.04688 17.0781 9.04688 18.0469C9.04688 20.5469 9.92969 22.6719 11.6953 24.4219C13.4609 26.1719 15.5859 27.0469 18.0703 27.0469C20.5547 27.0469 22.6719 26.1719 24.4219 24.4219C26.1719 22.6719 27.0469 20.5469 27.0469 18.0469C27.0469 16.8281 26.8125 15.6641 26.3438 14.5547C25.875 13.4453 25.2344 12.4922 24.4219 11.6953C23.6094 10.8984 22.6484 10.2578 21.5391 9.77344C20.4297 9.28906 19.2656 9.04688 18.0469 9.04688ZM18.0469 24.0469C16.3906 24.0469 14.9688 23.4531 13.7812 22.2656C12.5938 21.0781 12 19.6562 12 18C12 16.3438 12.5859 14.9297 13.7578 13.7578C14.9297 12.5859 16.3438 12 18 12C19.6562 12 21.0703 12.5859 22.2422 13.7578C23.4141 14.9297 24 16.3438 24 18C24 20.0625 23.1719 21.7031 21.5156 22.9219C20.4844 23.6719 19.3281 24.0469 18.0469 24.0469Z" fill="#FAC800"/>
</svg>
