<svg width="27" height="24" viewBox="0 0 27 24" fill="none" xmlns="http://www.w3.org/2000/svg">
<path fill-rule="evenodd" clip-rule="evenodd" d="M4.31209 9L4.28809 8.931C3.74809 7.384 3.28809 5.27 3.28809 4C3.28809 3.45 3.73809 3 4.28809 3H7.28809C7.81852 3 8.32723 3.21071 8.7023 3.58579C9.07737 3.96086 9.28809 4.46957 9.28809 5V7C9.28809 7.53043 9.07737 8.03914 8.7023 8.41421C8.32723 8.78929 7.81852 9 7.28809 9H6.45109C7.25846 10.989 8.45651 12.7958 9.97438 14.3137C11.4923 15.8316 13.2991 17.0296 15.2881 17.837V17C15.2881 16.4696 15.4988 15.9609 15.8739 15.5858C16.2489 15.2107 16.7577 15 17.2881 15H19.2881C19.8185 15 20.3272 15.2107 20.7023 15.5858C21.0774 15.9609 21.2881 16.4696 21.2881 17V20C21.2881 20.45 20.7381 21 20.2881 21C18.5631 21 16.8481 20.544 15.2881 20C10.1741 18.168 6.12009 14.114 4.31209 9Z" fill="white"/>
</svg>
