<svg width="38" height="38" viewBox="0 0 38 38" fill="none" xmlns="http://www.w3.org/2000/svg">
<circle cx="19" cy="19" r="18.3" stroke="#F4F7F7" stroke-width="1.4"/>
<path d="M18.4 8C16.473 8.028 12.333 8.344 10.02 10.467C8.302 12.187 7.696 14.7 7.633 17.817C7.57 20.933 7.488 26.776 13.12 28.36H13.123L13.119 30.776C13.119 30.776 13.082 31.753 13.729 31.953C14.506 32.195 14.963 31.453 15.709 30.651C16.116 30.211 16.681 29.567 17.106 29.071C20.956 29.397 23.918 28.655 24.256 28.546C25.032 28.294 29.432 27.73 30.148 21.889C30.888 15.869 29.788 12.059 27.808 10.343C27.212 9.793 24.802 8.043 19.433 8.02C19.433 8.02 19.038 7.995 18.396 8.003L18.4 8ZM18.458 9.693C19.003 9.689 19.338 9.71 19.338 9.71C23.88 9.73 26.055 11.098 26.56 11.556C28.235 12.991 29.09 16.424 28.466 21.453V21.455C27.862 26.333 24.292 26.639 23.634 26.85C23.354 26.94 20.752 27.587 17.481 27.374C17.481 27.374 15.045 30.314 14.284 31.078C14.164 31.198 14.024 31.245 13.932 31.222C13.802 31.189 13.766 31.034 13.767 30.808L13.787 26.79C9.025 25.47 9.302 20.498 9.357 17.895C9.411 15.291 9.9 13.157 11.353 11.722C13.313 9.949 16.827 9.704 18.463 9.692L18.458 9.693ZM18.838 12.295C18.7605 12.2989 18.6874 12.3323 18.6337 12.3884C18.58 12.4445 18.5498 12.519 18.5493 12.5966C18.5488 12.6742 18.578 12.7491 18.6309 12.8059C18.6839 12.8627 18.7565 12.8971 18.834 12.902C20.458 12.912 21.78 13.439 22.862 14.494C23.935 15.54 24.482 16.962 24.495 18.828C24.497 18.995 24.635 19.128 24.802 19.128C24.8819 19.1269 24.9582 19.0945 25.0144 19.0376C25.0705 18.9807 25.102 18.9039 25.102 18.824C25.088 16.84 24.484 15.228 23.286 14.06C22.096 12.9 20.594 12.307 18.839 12.295H18.838ZM14.878 12.99C14.6654 12.9606 14.449 13.0017 14.262 13.107L14.252 13.109C13.822 13.356 13.436 13.671 13.106 14.041C13.104 14.045 13.1 14.045 13.098 14.049C12.831 14.372 12.678 14.687 12.638 14.997C12.6302 15.0432 12.6278 15.0902 12.631 15.137C12.631 15.273 12.653 15.407 12.696 15.537L12.709 15.547C12.844 16.027 13.182 16.823 13.914 18.151C14.334 18.919 14.817 19.651 15.36 20.337C15.63 20.681 15.92 21.01 16.23 21.321L16.362 21.453C16.672 21.761 17.002 22.053 17.346 22.323C18.0326 22.8661 18.7638 23.3502 19.532 23.77C20.86 24.503 21.658 24.84 22.136 24.976L22.146 24.99C22.32 25.0469 22.5041 25.0656 22.686 25.045C22.996 25.009 23.313 24.855 23.634 24.585C23.638 24.585 23.637 24.583 23.642 24.58C24.012 24.25 24.325 23.86 24.572 23.432L24.575 23.422C24.8 22.99 24.725 22.58 24.395 22.302C24.391 22.302 23.697 21.722 23.358 21.472C22.998 21.217 22.628 20.98 22.245 20.762C21.735 20.477 21.213 20.656 20.997 20.936L20.55 21.5C20.32 21.783 19.893 21.746 19.893 21.746C16.773 20.95 15.938 17.791 15.938 17.791C15.938 17.791 15.901 17.365 16.186 17.135L16.749 16.687C17.026 16.472 17.205 15.95 16.919 15.439C16.7018 15.0553 16.4648 14.6831 16.209 14.324C15.9404 13.9726 15.6637 13.6275 15.379 13.289C15.2536 13.132 15.075 13.0263 14.877 12.992L14.878 12.99ZM19.368 13.87C19.2876 13.8676 19.2096 13.8972 19.1511 13.9524C19.0926 14.0075 19.0584 14.0836 19.056 14.164C19.0536 14.2444 19.0832 14.3224 19.1384 14.3809C19.1935 14.4394 19.2696 14.4736 19.35 14.476C20.51 14.561 21.367 14.942 21.995 15.626C22.625 16.314 22.925 17.15 22.901 18.196C22.9054 18.2729 22.9386 18.3453 22.994 18.3988C23.0494 18.4523 23.123 18.4829 23.2 18.4846C23.277 18.4862 23.3518 18.4588 23.4094 18.4077C23.4671 18.3566 23.5034 18.2856 23.511 18.209C23.536 17.034 23.177 16.016 22.444 15.215C21.704 14.405 20.667 13.962 19.394 13.869H19.37L19.368 13.87ZM19.831 15.5C19.754 15.5011 19.6803 15.5313 19.6246 15.5846C19.569 15.6378 19.5355 15.7101 19.531 15.787C19.523 15.954 19.651 16.097 19.819 16.107C20.342 16.135 20.694 16.282 20.932 16.529C21.172 16.774 21.32 17.149 21.348 17.693C21.3583 17.7684 21.3965 17.8372 21.455 17.8858C21.5136 17.9344 21.5883 17.9593 21.6643 17.9555C21.7403 17.9517 21.8121 17.9196 21.8655 17.8654C21.919 17.8113 21.9502 17.739 21.953 17.663C21.923 17.019 21.738 16.485 21.373 16.106C21.006 15.728 20.48 15.532 19.853 15.499H19.835L19.831 15.5Z" fill="white"/>
</svg>
