<svg width="38" height="38" viewBox="0 0 38 38" fill="none" xmlns="http://www.w3.org/2000/svg">
<circle cx="19" cy="19" r="18.3" stroke="#F4F7F7" stroke-width="1.4"/>
<path d="M19.006 26.012H18.986C18.924 26.012 12.721 26 11.156 25.575C10.7331 25.4611 10.3476 25.2381 10.038 24.9283C9.72846 24.6186 9.50568 24.2329 9.392 23.81C9.11059 22.2224 8.97469 20.6123 8.986 19C8.97874 17.385 9.11831 15.7727 9.403 14.183C9.51989 13.7594 9.7437 13.3729 10.053 13.0607C10.3622 12.7484 10.7465 12.5209 11.169 12.4C12.691 12 18.723 12 18.979 12H19C19.063 12 25.282 12.012 26.831 12.437C27.69 12.67 28.361 13.341 28.593 14.2C28.883 15.794 29.02 17.411 29 19.031C29.007 20.644 28.8671 22.2543 28.582 23.842C28.4668 24.2645 28.2432 24.6494 27.9332 24.9587C27.6232 25.268 27.2377 25.4908 26.815 25.605C25.295 26.008 19.262 26.012 19.006 26.012ZM17.006 16.005L17.001 22.005L22.213 19.005L17.006 16.005Z" fill="white"/>
</svg>
