<svg width="20" height="20" viewBox="0 0 20 20" fill="none" xmlns="http://www.w3.org/2000/svg">
<mask id="path-1-inside-1" fill="white">
<path fill-rule="evenodd" clip-rule="evenodd" d="M2.98771 0.920776L16.9877 0.920776L19.9877 0.920776L19.9877 17.9208L16.9877 17.9208L16.9877 6.29565L3.3939 19.8895L0.923828 17.4194L14.4224 3.92078L2.98771 3.92078L2.98771 0.920776Z"/>
</mask>
<path fill-rule="evenodd" clip-rule="evenodd" d="M2.98771 0.920776L16.9877 0.920776L19.9877 0.920776L19.9877 17.9208L16.9877 17.9208L16.9877 6.29565L3.3939 19.8895L0.923828 17.4194L14.4224 3.92078L2.98771 3.92078L2.98771 0.920776Z" fill="#151616"/>
<path d="M16.9877 0.920776L16.9877 1.92078L16.9877 0.920776ZM2.98771 0.920776L2.98771 -0.0792236L1.98771 -0.0792236L1.98771 0.920776L2.98771 0.920776ZM19.9877 0.920776L20.9877 0.920776L20.9877 -0.0792237L19.9877 -0.0792237L19.9877 0.920776ZM19.9877 17.9208L19.9877 18.9208L20.9877 18.9208L20.9877 17.9208L19.9877 17.9208ZM16.9877 17.9208L15.9877 17.9208L15.9877 18.9208L16.9877 18.9208L16.9877 17.9208ZM16.9877 6.29565L17.9877 6.29565L17.9877 3.88144L16.2806 5.58855L16.9877 6.29565ZM3.3939 19.8895L2.6868 20.5966L3.3939 21.3037L4.10101 20.5966L3.3939 19.8895ZM0.923828 17.4194L0.216721 16.7123L-0.490385 17.4194L0.216722 18.1265L0.923828 17.4194ZM14.4224 3.92078L15.1295 4.62788L16.8367 2.92078L14.4224 2.92078L14.4224 3.92078ZM2.98771 3.92078L1.98771 3.92078L1.98771 4.92078L2.98771 4.92078L2.98771 3.92078ZM16.9877 -0.0792237L2.98771 -0.0792236L2.98771 1.92078L16.9877 1.92078L16.9877 -0.0792237ZM19.9877 -0.0792237L16.9877 -0.0792237L16.9877 1.92078L19.9877 1.92078L19.9877 -0.0792237ZM20.9877 17.9208L20.9877 0.920776L18.9877 0.920776L18.9877 17.9208L20.9877 17.9208ZM16.9877 18.9208L19.9877 18.9208L19.9877 16.9208L16.9877 16.9208L16.9877 18.9208ZM15.9877 6.29565L15.9877 17.9208L17.9877 17.9208L17.9877 6.29565L15.9877 6.29565ZM16.2806 5.58855L2.6868 19.1824L4.10101 20.5966L17.6948 7.00276L16.2806 5.58855ZM4.10101 19.1824L1.63093 16.7123L0.216722 18.1265L2.6868 20.5966L4.10101 19.1824ZM1.63093 18.1265L15.1295 4.62788L13.7153 3.21367L0.216721 16.7123L1.63093 18.1265ZM2.98771 4.92078L14.4224 4.92078L14.4224 2.92078L2.98771 2.92078L2.98771 4.92078ZM1.98771 0.920776L1.98771 3.92078L3.98771 3.92078L3.98771 0.920776L1.98771 0.920776Z" fill="#151616" mask="url(#path-1-inside-1)"/>
</svg>
