<svg width="262" height="91" viewBox="0 0 262 91" fill="none" xmlns="http://www.w3.org/2000/svg">
<circle cx="216.5" cy="45.5" r="45.5" fill="#FBE114"/>
<path d="M16.968 63.728C13.1973 63.728 9.98667 62.8693 7.336 61.152C4.72267 59.4347 2.89333 57.0827 1.848 54.096L7.392 50.848C8.96 55.2533 12.208 57.456 17.136 57.456C19.5627 57.456 21.3733 56.9893 22.568 56.056C23.8 55.0853 24.416 53.8347 24.416 52.304C24.416 50.6987 23.7627 49.4853 22.456 48.664C21.1493 47.8053 18.8347 46.872 15.512 45.864C13.6453 45.304 12.1333 44.7813 10.976 44.296C9.81867 43.8107 8.58667 43.1387 7.28 42.28C6.01067 41.384 5.05867 40.2827 4.424 38.976C3.78933 37.6693 3.472 36.1387 3.472 34.384C3.472 30.912 4.704 28.168 7.168 26.152C9.632 24.0987 12.6 23.072 16.072 23.072C19.208 23.072 21.952 23.8373 24.304 25.368C26.656 26.8987 28.4667 29.008 29.736 31.696L24.304 34.832C22.6613 31.1733 19.9173 29.344 16.072 29.344C14.2053 29.344 12.712 29.792 11.592 30.688C10.472 31.5467 9.912 32.7227 9.912 34.216C9.912 35.672 10.472 36.8293 11.592 37.688C12.7493 38.5093 14.8213 39.3867 17.808 40.32C19.3013 40.8053 20.384 41.1787 21.056 41.44C21.7653 41.664 22.736 42.0373 23.968 42.56C25.2373 43.0827 26.1893 43.6053 26.824 44.128C27.4587 44.6507 28.1307 45.304 28.84 46.088C29.5867 46.872 30.1093 47.768 30.408 48.776C30.7067 49.784 30.856 50.9227 30.856 52.192C30.856 55.7387 29.568 58.5573 26.992 60.648C24.4533 62.7013 21.112 63.728 16.968 63.728ZM59.6509 29.96H43.1309V40.936H59.0909V47.096H43.1309V63H36.6909V23.8H59.6509V29.96ZM72.6753 56.84H90.0353V63H66.2353V23.8H89.7553V29.96H72.6753V40.152H88.3553V46.256H72.6753V56.84ZM118.835 63L110.547 48.72H102.931V63H96.4906V23.8H112.171C115.68 23.8 118.648 25.032 121.075 27.496C123.539 29.9227 124.771 32.8907 124.771 36.4C124.771 38.9013 124.043 41.1973 122.587 43.288C121.168 45.3413 119.301 46.8347 116.987 47.768L125.891 63H118.835ZM102.931 29.848V42.952H112.171C113.888 42.952 115.344 42.3173 116.539 41.048C117.733 39.7787 118.331 38.2293 118.331 36.4C118.331 34.5707 117.733 33.0213 116.539 31.752C115.344 30.4827 113.888 29.848 112.171 29.848H102.931ZM156.93 63L154.186 55.104H137.498L134.754 63H127.754L141.978 23.8H149.706L163.874 63H156.93ZM139.626 49.056H152.058L145.842 31.36L139.626 49.056ZM175.959 62.44C175.138 63.2613 174.149 63.672 172.991 63.672C171.834 63.672 170.845 63.2613 170.023 62.44C169.202 61.6187 168.791 60.6293 168.791 59.472C168.791 58.3147 169.183 57.3253 169.967 56.504C170.789 55.6827 171.797 55.272 172.991 55.272C174.149 55.272 175.138 55.6827 175.959 56.504C176.781 57.3253 177.191 58.3147 177.191 59.472C177.191 60.6293 176.781 61.6187 175.959 62.44ZM210.113 63L207.369 55.104H190.681L187.937 63H180.937L195.161 23.8H202.889L217.057 63H210.113ZM192.809 49.056H205.241L199.025 31.36L192.809 49.056ZM233.896 63.728C230.125 63.728 226.914 62.8693 224.264 61.152C221.65 59.4347 219.821 57.0827 218.776 54.096L224.32 50.848C225.888 55.2533 229.136 57.456 234.064 57.456C236.49 57.456 238.301 56.9893 239.496 56.056C240.728 55.0853 241.344 53.8347 241.344 52.304C241.344 50.6987 240.69 49.4853 239.384 48.664C238.077 47.8053 235.762 46.872 232.44 45.864C230.573 45.304 229.061 44.7813 227.904 44.296C226.746 43.8107 225.514 43.1387 224.208 42.28C222.938 41.384 221.986 40.2827 221.352 38.976C220.717 37.6693 220.4 36.1387 220.4 34.384C220.4 30.912 221.632 28.168 224.096 26.152C226.56 24.0987 229.528 23.072 233 23.072C236.136 23.072 238.88 23.8373 241.232 25.368C243.584 26.8987 245.394 29.008 246.664 31.696L241.232 34.832C239.589 31.1733 236.845 29.344 233 29.344C231.133 29.344 229.64 29.792 228.52 30.688C227.4 31.5467 226.84 32.7227 226.84 34.216C226.84 35.672 227.4 36.8293 228.52 37.688C229.677 38.5093 231.749 39.3867 234.736 40.32C236.229 40.8053 237.312 41.1787 237.984 41.44C238.693 41.664 239.664 42.0373 240.896 42.56C242.165 43.0827 243.117 43.6053 243.752 44.128C244.386 44.6507 245.058 45.304 245.768 46.088C246.514 46.872 247.037 47.768 247.336 48.776C247.634 49.784 247.784 50.9227 247.784 52.192C247.784 55.7387 246.496 58.5573 243.92 60.648C241.381 62.7013 238.04 63.728 233.896 63.728Z" fill="white"/>
</svg>
